<?xml version="1.0" encoding="UTF-8"?><svg id="uuid-f4f649f6-1c33-4029-8f1a-0decb00e7000" xmlns="http://www.w3.org/2000/svg" xmlns:xlink="http://www.w3.org/1999/xlink" viewBox="0 0 1326.85 731.68"><defs><style>.uuid-a554e66d-0cd1-4e54-a4f2-500878a98cbb{fill:url(#uuid-8b4cdeb1-6a5c-4d60-8c54-8aa75b9243ca);stroke:#231f20;stroke-miterlimit:10;stroke-width:.75px;}.uuid-a554e66d-0cd1-4e54-a4f2-500878a98cbb,.uuid-6ec11f4c-221f-4b1b-9871-158004173d55,.uuid-f039e531-5381-45b7-b417-0b2c054d3dc3{opacity:.99;}.uuid-6ec11f4c-221f-4b1b-9871-158004173d55{fill:url(#uuid-b20f3f4b-2d24-4781-a253-cceed4291fcc);}.uuid-f039e531-5381-45b7-b417-0b2c054d3dc3{fill:url(#uuid-fe35509c-ac92-4c56-a795-ee168ac93299);}</style><linearGradient id="uuid-8b4cdeb1-6a5c-4d60-8c54-8aa75b9243ca" x1="69.68" y1="502.06" x2="1257.18" y2="502.06" gradientUnits="userSpaceOnUse"><stop offset="0" stop-color="#4dfcff"/><stop offset=".2" stop-color="#4dfcff"/><stop offset=".38" stop-color="#5093fd"/><stop offset=".52" stop-color="#9345fe"/><stop offset=".7" stop-color="#fd6afb"/></linearGradient><linearGradient id="uuid-fe35509c-ac92-4c56-a795-ee168ac93299" x1="108.9" y1="324.94" x2="359.21" y2="575.24" gradientUnits="userSpaceOnUse"><stop offset=".24" stop-color="#000"/><stop offset=".93" stop-color="#000" stop-opacity="0"/></linearGradient><linearGradient id="uuid-b20f3f4b-2d24-4781-a253-cceed4291fcc" x1="1217.95" y1="324.93" x2="965.69" y2="577.19" xlink:href="#uuid-fe35509c-ac92-4c56-a795-ee168ac93299"/></defs><g id="uuid-896bd4fe-9398-4b1a-807f-88e60c02940c"><path class="uuid-a554e66d-0cd1-4e54-a4f2-500878a98cbb" d="m1143.42,272.81c-.45,1.04-.9,2.08-1.35,3.12-1.99,4.57-4.04,9.1-6.16,13.6-.52,1.13-1.06,2.26-1.61,3.39-.44.94-.89,1.88-1.35,2.81-.31.65-.62,1.28-.94,1.92-.48.98-.96,1.96-1.45,2.93-1.63,3.28-3.3,6.54-5.01,9.78-.51.99-1.03,1.97-1.57,2.95-.4.78-.82,1.57-1.25,2.35-.39.73-.79,1.45-1.19,2.18-.75,1.38-1.51,2.76-2.28,4.13-.04.07-.08.15-.12.22-.86,1.53-1.73,3.07-2.6,4.59-2.39,4.18-4.84,8.33-7.35,12.43-.84,1.38-1.68,2.74-2.53,4.1-.24.39-.48.78-.73,1.17-.76,1.23-1.53,2.45-2.32,3.66-2.6,4.09-5.26,8.15-7.99,12.16-.97,1.44-1.95,2.87-2.94,4.29-.85,1.24-1.72,2.48-2.6,3.72-.68.97-1.37,1.94-2.07,2.91-.44.63-.9,1.27-1.37,1.9-.66.93-1.34,1.87-2.03,2.79-1.03,1.42-2.07,2.84-3.13,4.24-1.23,1.65-2.47,3.28-3.72,4.91-1.44,1.88-2.89,3.75-4.37,5.61-1.11,1.42-2.24,2.84-3.38,4.25-1.15,1.43-2.31,2.85-3.48,4.27-2.54,3.1-5.12,6.17-7.75,9.2-.71.84-1.43,1.67-2.16,2.49-.68.8-1.37,1.58-2.07,2.36-.42.49-.84.97-1.28,1.44-.87.99-1.75,1.97-2.64,2.95-.93,1.04-1.87,2.07-2.82,3.09-1.74,1.91-3.5,3.79-5.29,5.67-1.44,1.54-2.91,3.08-4.39,4.59-.84.87-1.68,1.73-2.53,2.59-.77.8-1.55,1.59-2.34,2.37-4.52,4.55-9.13,9.02-13.82,13.39-.74.69-1.47,1.37-2.21,2.05-.6.56-1.2,1.12-1.81,1.66-.79.73-1.58,1.44-2.37,2.16-4.24,3.84-8.55,7.6-12.92,11.29-1.57,1.33-3.15,2.65-4.74,3.96-.06.05-.12.1-.18.15-1.57,1.3-3.15,2.59-4.74,3.86-1.62,1.31-3.26,2.61-4.9,3.9-1.64,1.29-3.29,2.58-4.96,3.85,0,.01-.01.01-.02.02-1.57,1.2-3.15,2.4-4.74,3.58-.31.24-.62.48-.93.69-1.24.94-2.49,1.86-3.74,2.77-.48.36-.97.72-1.46,1.06-.91.67-1.83,1.33-2.75,1.98-.89.65-1.77,1.28-2.67,1.91-1.31.94-2.63,1.86-3.96,2.77-1.6,1.12-3.2,2.22-4.82,3.31-.12.08-.24.16-.36.24-1.68,1.14-3.38,2.27-5.08,3.39-.15.1-.3.2-.45.29-1.55,1.03-3.12,2.04-4.69,3.05-.19.13-.38.25-.58.37-1.53.98-3.06,1.95-4.6,2.91-.19.13-.39.25-.58.36-1.72,1.08-3.45,2.15-5.19,3.2-1.53.94-3.07,1.86-4.62,2.78-.39.23-.77.46-1.16.68-1.68,1-3.37,1.98-5.06,2.95-1.82,1.05-3.65,2.09-5.49,3.11-1.49.84-2.99,1.67-4.49,2.48-.76.42-1.52.84-2.29,1.25-1.43.77-2.87,1.54-4.31,2.3-1.84.97-3.69,1.93-5.54,2.88-.03.02-.06.03-.09.05-1.72.88-3.45,1.75-5.18,2.61-.38.2-.76.39-1.15.57-1.6.8-3.21,1.58-4.82,2.35-.07.05-.14.08-.22.11-1.77.86-3.55,1.71-5.34,2.54-.1.05-.2.1-.31.14-1.91.9-3.83,1.78-5.76,2.65-1.86.85-3.73,1.68-5.61,2.5-.06.03-.13.06-.19.08-1.73.76-3.47,1.51-5.21,2.24-2.15.93-4.32,1.83-6.49,2.71-1.97.81-3.93,1.6-5.91,2.37-1.11.44-2.22.88-3.34,1.3-1.85.73-3.71,1.43-5.58,2.13-1,.37-2,.74-3,1.1-1.99.74-4,1.46-6.01,2.16-1,.36-2.01.71-3.02,1.05-3.02,1.05-6.05,2.07-9.1,3.05-1.01.34-2.03.66-3.05.98-2.03.66-4.08,1.29-6.13,1.91-2.05.63-4.1,1.24-6.16,1.83-1.03.31-2.06.6-3.09.89-1.03.3-2.06.59-3.1.87-2.07.58-4.14,1.14-6.22,1.68-2.08.56-4.16,1.09-6.25,1.61-2.09.53-4.18,1.04-6.28,1.53-1.05.26-2.11.5-3.16.74-2.1.49-4.21.97-6.32,1.42-1.06.24-2.12.46-3.18.68-1.06.23-2.12.45-3.18.66-1.06.22-2.12.44-3.18.64-2.13.43-4.26.84-6.4,1.23-3.21.6-6.42,1.16-9.65,1.69-2.15.36-4.3.71-6.46,1.03-2.16.34-4.32.65-6.49.95-2.17.31-4.34.6-6.52.87-2.17.28-4.35.55-6.54.79-1.09.13-2.18.25-3.28.36-2.18.25-4.37.47-6.57.67-2.16.21-4.32.41-6.49.58-1.14.1-2.28.19-3.43.27-6.63.51-13.28.89-19.97,1.14-1.11.05-2.23.09-3.35.12-2.23.07-4.47.13-6.71.17-1.13.02-2.25.04-3.37.05-2.24.04-4.49.05-6.74.05s-4.5-.01-6.74-.05c-1.12-.01-2.24-.03-3.37-.05-2.24-.04-4.48-.1-6.71-.17-1.12-.03-2.24-.07-3.35-.12-7.81-.29-15.57-.76-23.28-1.4-2.21-.17-4.41-.37-6.61-.59-1.1-.09-2.19-.2-3.29-.32-4.38-.44-8.75-.94-13.1-1.5-4.36-.54-8.69-1.15-13.01-1.82-2.02-.31-4.05-.63-6.06-.96-1.51-.25-3.02-.5-4.53-.77-3.02-.52-6.02-1.07-9.02-1.65-7.5-1.44-14.93-3.04-22.31-4.8-1.97-.47-3.93-.95-5.89-1.44-2.61-.65-5.21-1.32-7.81-2.02-2.59-.69-5.18-1.4-7.76-2.14-1.94-.54-3.86-1.1-5.79-1.68-1.93-.57-3.85-1.16-5.76-1.75-1.28-.39-2.55-.79-3.83-1.2-1.02-.31-2.04-.64-3.05-.98-2.04-.65-4.06-1.32-6.08-2.01-2.02-.68-4.03-1.37-6.04-2.09-1.01-.34-2.01-.7-3.01-1.07-1.88-.67-3.75-1.35-5.61-2.05-1.13-.41-2.25-.83-3.37-1.27-1.99-.75-3.97-1.51-5.94-2.3-2.97-1.16-5.92-2.36-8.85-3.58-1.15-.47-2.28-.95-3.42-1.44-1.73-.73-3.46-1.47-5.19-2.23-.05-.02-.1-.04-.15-.07-1.94-.84-3.87-1.7-5.8-2.58-3.85-1.73-7.68-3.52-11.48-5.36-1.9-.91-3.79-1.83-5.68-2.78-1.89-.93-3.78-1.88-5.65-2.85-1.88-.95-3.74-1.92-5.6-2.91-1.86-.98-3.72-1.97-5.57-2.98-1.39-.75-2.77-1.51-4.15-2.28-4.14-2.29-8.24-4.64-12.3-7.05-1.75-1.02-3.48-2.06-5.21-3.11-2.08-1.26-4.15-2.54-6.21-3.85-1.21-.75-2.42-1.52-3.63-2.29-2.11-1.33-4.2-2.7-6.29-4.07-5.25-3.45-10.44-6.99-15.55-10.64-1.92-1.36-3.83-2.74-5.72-4.13-5.7-4.16-11.31-8.44-16.83-12.84-2.45-1.95-4.88-3.92-7.3-5.92-3.22-2.64-6.41-5.34-9.56-8.08-1.57-1.35-3.13-2.72-4.69-4.11-.01,0-.03-.02-.04-.04-1.56-1.37-3.1-2.76-4.64-4.16-1.55-1.4-3.08-2.81-4.61-4.24-1.53-1.42-3.05-2.85-4.55-4.29-1.51-1.43-3.01-2.87-4.49-4.34-.01,0-.02,0-.03-.02-1.49-1.45-2.97-2.91-4.44-4.39-2.96-2.95-5.87-5.93-8.75-8.96-1.43-1.49-2.84-2.99-4.24-4.5-.04-.04-.08-.08-.11-.12-1.24-1.32-2.46-2.65-3.67-3.99-.33-.34-.64-.69-.94-1.03-1.27-1.38-2.52-2.78-3.75-4.18-1.39-1.56-2.77-3.13-4.13-4.71-1.38-1.58-2.73-3.16-4.07-4.76-1.35-1.59-2.69-3.19-4.01-4.8-1-1.21-1.99-2.42-2.98-3.64-2.97-3.65-5.88-7.34-8.73-11.08-1.26-1.63-2.5-3.27-3.72-4.91-.05-.05-.09-.1-.11-.15-2.5-3.33-4.95-6.68-7.35-10.07-3.65-5.12-7.19-10.3-10.64-15.55-4.62-7-9.06-14.11-13.32-21.34-3.22-5.42-6.32-10.9-9.33-16.45-1.01-1.85-2.01-3.7-2.98-5.57-1.97-3.72-3.89-7.47-5.76-11.25-.95-1.88-1.88-3.78-2.78-5.68-.55-1.14-1.09-2.27-1.62-3.41-.49-1-.96-2-1.42-3.01-.5-1.08-1-2.17-1.5-3.26-.5-1.08-1-2.16-1.47-3.25-.99-2.17-1.94-4.34-2.88-6.53-.27-.6-.53-1.21-.79-1.82l-113.75,91.35c1.9,3.79,3.83,7.56,5.79,11.31.65,1.25,1.32,2.49,1.98,3.74.88,1.66,1.77,3.31,2.67,4.96,1.79,3.31,3.61,6.59,5.46,9.86.77,1.36,1.55,2.72,2.32,4.08.16.27.32.54.47.81,1.39,2.4,2.8,4.8,4.21,7.19,1.41,2.39,2.85,4.77,4.3,7.14.07.12.15.24.22.36.94,1.54,1.89,3.07,2.84,4.6.01.01.01.02.01.02,2.22,3.55,4.46,7.08,6.74,10.59.78,1.2,1.56,2.39,2.34,3.58,1.03,1.56,2.07,3.12,3.11,4.67,1.04,1.56,2.09,3.11,3.15,4.65,1.17,1.72,2.36,3.44,3.55,5.15.86,1.23,1.72,2.46,2.59,3.69,1.17,1.65,2.34,3.29,3.52,4.93,1.09,1.51,2.19,3.03,3.3,4.53,1.1,1.51,2.21,3.01,3.33,4.5,1.21,1.61,2.42,3.22,3.63,4.82,1.05,1.37,2.1,2.74,3.15,4.1,2.28,2.96,4.59,5.89,6.93,8.8,1.16,1.46,2.33,2.91,3.51,4.36.06.07.12.14.17.21,1.13,1.37,2.25,2.75,3.39,4.11.97,1.18,1.95,2.35,2.93,3.52,1.42,1.68,2.85,3.36,4.28,5.04,1.21,1.41,2.43,2.83,3.66,4.23,1.22,1.41,2.45,2.81,3.69,4.2.04.04.08.09.11.13,1.21,1.35,2.41,2.7,3.62,4.04,1.26,1.39,2.51,2.77,3.77,4.15,2.43,2.64,4.87,5.26,7.34,7.87,1.44,1.51,2.89,3.02,4.34,4.53,2.52,2.62,5.07,5.21,7.64,7.79,2.63,2.64,5.29,5.25,7.97,7.85,2.67,2.59,5.37,5.17,8.09,7.72,2.5,2.34,5.02,4.66,7.55,6.97.37.33.74.66,1.1.99,1.24,1.13,2.49,2.24,3.73,3.35,2.79,2.49,5.59,4.94,8.42,7.38,1.41,1.21,2.83,2.43,4.25,3.63,1.43,1.21,2.85,2.41,4.29,3.6,1.43,1.19,2.87,2.38,4.31,3.56,2.89,2.37,5.8,4.71,8.72,7.02,1.47,1.16,2.94,2.31,4.41,3.46,2.95,2.29,5.92,4.55,8.9,6.8,4.48,3.36,9.01,6.67,13.57,9.92.11.08.22.15.33.24,1.41,1,2.83,2,4.25,2.99,1.54,1.07,3.07,2.14,4.61,3.19,1.54,1.06,3.09,2.12,4.64,3.16,3.1,2.09,6.22,4.16,9.36,6.2,1.57,1.02,3.14,2.03,4.72,3.04,8.04,5.14,16.21,10.1,24.48,14.9,3.31,1.91,6.64,3.8,9.98,5.66,1.68.93,3.36,1.86,5.04,2.77,3.36,1.84,6.74,3.64,10.14,5.42,3.4,1.78,6.81,3.52,10.25,5.24,1.71.86,3.43,1.71,5.16,2.56,1.26.61,2.52,1.23,3.79,1.84.46.22.93.45,1.4.67,1.73.83,3.47,1.65,5.21,2.47,3.48,1.63,6.98,3.23,10.5,4.8,1.62.73,3.24,1.44,4.86,2.16.14.06.28.12.42.18,1.77.77,3.54,1.53,5.31,2.29,1.41.6,2.82,1.19,4.23,1.78,5.7,2.39,11.46,4.7,17.25,6.93,1.53.59,3.07,1.18,4.61,1.76,2.08.78,4.17,1.56,6.26,2.32,2.46.9,4.92,1.78,7.38,2.65,2.47.87,4.94,1.72,7.42,2.56.15.05.31.1.46.15,1.13.39,2.26.77,3.4,1.14,1.29.43,2.58.85,3.87,1.27,1.96.64,3.92,1.26,5.9,1.88,1.57.5,3.15.99,4.73,1.47,5.58,1.71,11.21,3.35,16.86,4.92,1.87.52,3.75,1.03,5.63,1.53.02.01.04.01.06.02,1.88.5,3.77,1,5.65,1.48,1.5.39,3,.77,4.51,1.15.88.22,1.76.44,2.65.65,1.11.28,2.22.55,3.33.81,2.48.6,4.96,1.19,7.44,1.75,1.66.38,3.33.76,4.99,1.12,1.82.4,3.64.8,5.46,1.18.45.09.9.19,1.35.28,1.59.34,3.18.66,4.77.98,1.71.35,3.42.69,5.13,1.02.33.06.67.12,1,.19,1.84.35,3.67.69,5.51,1.03,1.95.36,3.9.7,5.85,1.04,1.96.34,3.91.67,5.87.99,1.96.33,3.92.64,5.89.94,1.85.29,3.7.57,5.56.84,1.55.23,3.1.45,4.66.66.88.13,1.77.25,2.66.37,1.62.22,3.25.43,4.88.64l.21.03c1.91.24,3.82.48,5.74.7,1.98.24,3.97.46,5.97.68,1.99.22,3.98.43,5.98.63,1.77.18,3.55.35,5.33.51,2.56.23,5.13.45,7.7.66,1.29.11,2.59.21,3.89.3,1.02.08,2.04.15,3.06.22,1.98.14,3.95.27,5.93.39,1.41.09,2.83.17,4.24.24,1.85.1,3.69.2,5.54.28,1.82.09,3.64.16,5.47.23,1.14.05,2.28.09,3.41.12.66.03,1.32.05,1.98.06.99.04,1.97.06,2.96.08,1.73.05,3.46.09,5.19.12,1.98.04,3.97.06,5.97.08,2.04.02,4.09.03,6.14.03,1.5,0,3,0,4.5,0,2.58-.02,5.15-.05,7.72-.1,3.06-.06,6.12-.13,9.17-.23,1.11-.03,2.23-.07,3.35-.12,2.12-.07,4.24-.16,6.36-.26,1.11-.05,2.22-.1,3.33-.16,4.28-.22,8.54-.48,12.8-.78,1.42-.1,2.83-.2,4.25-.31,2.66-.2,5.32-.42,7.97-.66.67-.06,1.34-.12,2.01-.18,2.13-.19,4.25-.4,6.37-.61,3.43-.35,6.85-.73,10.27-1.13.97-.11,1.95-.23,2.92-.35,5.74-.7,11.44-1.47,17.13-2.31,1.25-.19,2.49-.37,3.74-.57,1.55-.24,3.1-.48,4.65-.73,1.21-.2,2.42-.4,3.63-.6,1.38-.23,2.76-.46,4.13-.7,1.38-.24,2.75-.48,4.12-.73,2.4-.43,4.79-.88,7.17-1.33,3.31-.64,6.62-1.3,9.91-1.98,1.13-.24,2.27-.47,3.4-.72,2.71-.57,5.42-1.17,8.12-1.78,2.28-.51,4.55-1.04,6.81-1.58,1.19-.28,2.37-.56,3.55-.85,3.6-.88,7.19-1.78,10.77-2.72,1.01-.26,2.02-.53,3.02-.8,1.27-.33,2.54-.67,3.8-1.02.18-.05.35-.09.52-.14,1.14-.31,2.27-.63,3.4-.94,2.23-.62,4.44-1.25,6.66-1.9l3.18-.93c1.55-.46,3.1-.93,4.65-1.4,1.3-.39,2.6-.79,3.9-1.2.98-.3,1.97-.61,2.95-.93,1.71-.53,3.42-1.08,5.13-1.64,1.19-.38,2.37-.77,3.56-1.17,1.09-.36,2.18-.72,3.28-1.1.78-.26,1.57-.52,2.35-.79,1.28-.44,2.56-.88,3.84-1.33,1.29-.44,2.57-.9,3.86-1.36,1.1-.39,2.21-.78,3.31-1.19,2.79-1,5.58-2.03,8.35-3.08,1.04-.39,2.08-.78,3.11-1.18.82-.31,1.64-.63,2.46-.95,1.25-.48,2.49-.97,3.74-1.45.04-.02.07-.03.1-.04,1.23-.49,2.47-.98,3.7-1.48,1.25-.5,2.5-1.01,3.75-1.52,1.25-.5,2.49-1.02,3.73-1.54,1.25-.51,2.49-1.04,3.73-1.56,1.22-.51,2.44-1.03,3.65-1.55,1.26-.54,2.52-1.09,3.77-1.64,1.23-.54,2.46-1.08,3.69-1.63s2.45-1.1,3.68-1.65c1.33-.6,2.66-1.2,3.98-1.81,1.06-.49,2.13-.99,3.19-1.48,1.45-.67,2.89-1.35,4.32-2.04,1.03-.49,2.07-.99,3.11-1.49,1.21-.58,2.41-1.16,3.62-1.75,6.02-2.95,11.99-5.98,17.91-9.11,1.18-.62,2.36-1.25,3.54-1.88,1.18-.63,2.36-1.27,3.53-1.91,1.18-.63,2.35-1.28,3.52-1.92,1.17-.64,2.34-1.29,3.51-1.95,1.16-.65,2.33-1.3,3.49-1.96,1.16-.66,2.32-1.32,3.48-1.99,1.16-.67,2.31-1.34,3.47-2.01,2.31-1.34,4.61-2.7,6.89-4.07,1.14-.69,2.29-1.37,3.43-2.07,2.28-1.39,4.55-2.78,6.81-4.19,1.13-.71,2.26-1.42,3.38-2.13,1.13-.71,2.25-1.43,3.37-2.15,1.13-.72,2.25-1.44,3.36-2.17,1.12-.72,2.24-1.45,3.35-2.18,1.11-.74,2.22-1.47,3.33-2.21,2.21-1.48,4.42-2.97,6.62-4.47s4.39-3.02,6.56-4.55c2.03-1.42,4.05-2.86,6.06-4.3,3.39-2.44,6.75-4.9,10.08-7.4,1.07-.8,2.13-1.6,3.19-2.4,1.28-.97,2.56-1.94,3.83-2.92.83-.64,1.67-1.28,2.5-1.93,1.04-.81,2.09-1.63,3.14-2.45,3.31-2.6,6.6-5.24,9.86-7.91,1.85-1.5,3.69-3.02,5.52-4.55,2.07-1.73,4.13-3.47,6.17-5.22,1.92-1.64,3.82-3.29,5.72-4.95,2.12-1.86,4.23-3.72,6.32-5.6,1.96-1.76,3.9-3.52,5.83-5.3,2.99-2.76,5.96-5.53,8.9-8.34,1.59-1.52,3.18-3.05,4.75-4.58,3.22-3.13,6.41-6.29,9.56-9.49.02,0,.04-.03.05-.05,2.75-2.79,5.48-5.61,8.19-8.45.67-.7,1.34-1.41,2.01-2.12,1.16-1.23,2.32-2.46,3.48-3.71,1.15-1.24,2.3-2.48,3.43-3.73,5.95-6.49,11.76-13.09,17.44-19.81.8-.94,1.59-1.89,2.39-2.84.13-.15.25-.3.37-.45.78-.94,1.57-1.88,2.34-2.82.31-.36.61-.73.89-1.09.99-1.19,1.97-2.39,2.93-3.59,10.44-12.88,20.41-26.16,29.86-39.81.76-1.09,1.52-2.19,2.27-3.29,1.17-1.7,2.33-3.41,3.46-5.12,1.03-1.52,2.05-3.04,3.05-4.57.88-1.33,1.74-2.66,2.6-3.99.6-.91,1.19-1.83,1.78-2.75,1.56-2.42,3.1-4.86,4.62-7.3.64-1.02,1.27-2.05,1.9-3.07.7-1.14,1.4-2.28,2.09-3.42.57-.94,1.15-1.89,1.72-2.84.13-.22.26-.44.39-.66,2.05-3.4,4.06-6.83,6.04-10.28.93-1.62,1.86-3.25,2.78-4.89,1.05-1.86,2.09-3.72,3.12-5.59,2.29-4.16,4.54-8.34,6.74-12.55.88-1.68,1.75-3.36,2.61-5.04.02-.04.05-.09.07-.13.85-1.66,1.7-3.33,2.54-5.01.12-.25.25-.49.37-.74l-113.76-91.35Z"/><path class="uuid-f039e531-5381-45b7-b417-0b2c054d3dc3" d="m386.85,510.39c-1.21-.75-2.42-1.52-3.63-2.29-2.11-1.33-4.2-2.7-6.29-4.07-5.25-3.45-10.44-6.99-15.55-10.64-1.92-1.36-3.83-2.74-5.72-4.13-5.7-4.16-11.31-8.44-16.83-12.84-2.45-1.95-4.88-3.92-7.3-5.92-3.22-2.64-6.41-5.34-9.56-8.08-1.57-1.35-3.13-2.72-4.69-4.11-.01,0-.03-.02-.04-.04-1.56-1.37-3.1-2.76-4.64-4.16-1.55-1.4-3.08-2.81-4.61-4.24-1.53-1.42-3.05-2.85-4.55-4.29-1.51-1.43-3.01-2.87-4.49-4.34-.01,0-.02,0-.03-.02-1.49-1.45-2.97-2.91-4.44-4.39-2.96-2.95-5.87-5.93-8.75-8.96-1.43-1.49-2.84-2.99-4.24-4.5-.04-.04-.08-.08-.11-.12-1.24-1.32-2.46-2.65-3.67-3.99-.33-.34-.64-.69-.94-1.03-1.27-1.38-2.52-2.78-3.75-4.18-1.39-1.56-2.77-3.13-4.13-4.71-1.38-1.58-2.73-3.16-4.07-4.76-1.35-1.59-2.69-3.19-4.01-4.8-1-1.21-1.99-2.42-2.98-3.64-2.97-3.65-5.88-7.34-8.73-11.08-1.26-1.63-2.5-3.27-3.72-4.91-.05-.05-.09-.1-.11-.15-2.5-3.33-4.95-6.68-7.35-10.07-3.65-5.12-7.19-10.3-10.64-15.55-4.62-7-9.06-14.11-13.32-21.34-3.22-5.42-6.32-10.9-9.33-16.45-1.01-1.85-2.01-3.7-2.98-5.57-1.97-3.72-3.89-7.47-5.76-11.25-.95-1.88-1.88-3.78-2.78-5.68-.55-1.14-1.09-2.27-1.62-3.41-.49-1-.96-2-1.42-3.01-.5-1.08-1-2.17-1.5-3.26-.5-1.08-1-2.16-1.47-3.25-.99-2.17-1.94-4.34-2.88-6.53-.27-.6-.53-1.21-.79-1.82l-113.75,91.35c1.9,3.79,3.83,7.56,5.79,11.31.65,1.25,1.32,2.49,1.98,3.74.88,1.66,1.77,3.31,2.67,4.96,1.79,3.31,3.61,6.59,5.46,9.86.77,1.36,1.55,2.72,2.32,4.08.16.27.32.54.47.81,1.39,2.4,2.8,4.8,4.21,7.19,1.41,2.39,2.85,4.77,4.3,7.14.07.12.15.24.22.36.94,1.54,1.89,3.07,2.84,4.6.01.01.01.02.01.02,2.22,3.55,4.46,7.08,6.74,10.59.78,1.2,1.56,2.39,2.34,3.58,1.03,1.56,2.07,3.12,3.11,4.67,1.04,1.56,2.09,3.11,3.15,4.65,1.17,1.72,2.36,3.44,3.55,5.15.86,1.23,1.72,2.46,2.59,3.69,1.17,1.65,2.34,3.29,3.52,4.93,1.09,1.51,2.19,3.03,3.3,4.53,1.1,1.51,2.21,3.01,3.33,4.5,1.21,1.61,2.42,3.22,3.63,4.82,1.05,1.37,2.1,2.74,3.15,4.1,2.28,2.96,4.59,5.89,6.93,8.8,1.16,1.46,2.33,2.91,3.51,4.36.06.07.12.14.17.21,1.13,1.37,2.25,2.75,3.39,4.11.97,1.18,1.95,2.35,2.93,3.52,1.42,1.68,2.85,3.36,4.28,5.04,1.21,1.41,2.43,2.83,3.66,4.23,1.22,1.41,2.45,2.81,3.69,4.2.04.04.08.09.11.13,1.21,1.35,2.41,2.7,3.62,4.04,1.26,1.39,2.51,2.77,3.77,4.15,2.43,2.64,4.87,5.26,7.34,7.87,1.44,1.51,2.89,3.02,4.34,4.53,2.52,2.62,5.07,5.21,7.64,7.79,2.63,2.64,5.29,5.25,7.97,7.85,2.67,2.59,5.37,5.17,8.09,7.72,2.5,2.34,5.02,4.66,7.55,6.97.37.33.74.66,1.1.99,1.24,1.13,2.49,2.24,3.73,3.35,2.79,2.49,5.59,4.94,8.42,7.38,1.41,1.21,2.83,2.43,4.25,3.63,1.43,1.21,2.85,2.41,4.29,3.6,1.43,1.19,2.87,2.38,4.31,3.56,2.89,2.37,5.8,4.71,8.72,7.02,1.47,1.16,2.94,2.31,4.41,3.46,2.95,2.29,5.92,4.55,8.9,6.8,4.48,3.36,9.01,6.67,13.57,9.92.11.08.22.15.33.24,1.41,1,2.83,2,4.25,2.99,1.54,1.07,3.07,2.14,4.61,3.19,1.54,1.06,3.09,2.12,4.64,3.16,3.1,2.09,6.22,4.16,9.36,6.2,1.57,1.02,3.14,2.03,4.72,3.04l86.1-113.25c-2.08-1.26-4.15-2.54-6.21-3.85Z"/><path class="uuid-6ec11f4c-221f-4b1b-9871-158004173d55" d="m1143.42,272.81c-.45,1.04-.9,2.08-1.35,3.12-1.99,4.57-4.04,9.1-6.16,13.6-.52,1.13-1.06,2.26-1.61,3.39-.44.94-.89,1.88-1.35,2.81-.31.65-.62,1.28-.94,1.92-.48.98-.96,1.96-1.45,2.93-1.63,3.28-3.3,6.54-5.01,9.78-.51.99-1.03,1.97-1.57,2.95-.4.78-.82,1.57-1.25,2.35-.39.73-.79,1.45-1.19,2.18-.75,1.38-1.51,2.76-2.28,4.13-.04.07-.08.15-.12.22-.86,1.53-1.73,3.07-2.6,4.59-2.39,4.18-4.84,8.33-7.35,12.43-.84,1.38-1.68,2.74-2.53,4.1-.24.39-.48.78-.73,1.17-.76,1.23-1.53,2.45-2.32,3.66-2.6,4.09-5.26,8.15-7.99,12.16-.97,1.44-1.95,2.87-2.94,4.29-.85,1.24-1.72,2.48-2.6,3.72-.68.97-1.37,1.94-2.07,2.91-.44.63-.9,1.27-1.37,1.9-.66.93-1.34,1.87-2.03,2.79-1.03,1.42-2.07,2.84-3.13,4.24-1.23,1.65-2.47,3.28-3.72,4.91-1.44,1.88-2.89,3.75-4.37,5.61-1.11,1.42-2.24,2.84-3.38,4.25-1.15,1.43-2.31,2.85-3.48,4.27-2.54,3.1-5.12,6.17-7.75,9.2-.71.84-1.43,1.67-2.16,2.49-.68.8-1.37,1.58-2.07,2.36-.42.49-.84.97-1.28,1.44-.87.99-1.75,1.97-2.64,2.95-.93,1.04-1.87,2.07-2.82,3.09-1.74,1.91-3.5,3.79-5.29,5.67-1.44,1.54-2.91,3.08-4.39,4.59-.84.87-1.68,1.73-2.53,2.59-.77.8-1.55,1.59-2.34,2.37-4.52,4.55-9.13,9.02-13.82,13.39-.74.69-1.47,1.37-2.21,2.05-.6.56-1.2,1.12-1.81,1.66-.79.73-1.58,1.44-2.37,2.16-4.24,3.84-8.55,7.6-12.92,11.29-1.57,1.33-3.15,2.65-4.74,3.96-.06.05-.12.1-.18.15-1.57,1.3-3.15,2.59-4.74,3.86-1.62,1.31-3.26,2.61-4.9,3.9-1.64,1.29-3.29,2.58-4.96,3.85,0,.01-.01.01-.02.02-1.57,1.2-3.15,2.4-4.74,3.58-.31.24-.62.48-.93.69-1.24.94-2.49,1.86-3.74,2.77-.48.36-.97.72-1.46,1.06-.91.67-1.83,1.33-2.75,1.98-.89.65-1.77,1.28-2.67,1.91-1.31.94-2.63,1.86-3.96,2.77-1.6,1.12-3.2,2.22-4.82,3.31-.12.08-.24.16-.36.24-1.68,1.14-3.38,2.27-5.08,3.39-.15.1-.3.2-.45.29-1.55,1.03-3.12,2.04-4.69,3.05-.19.13-.38.25-.58.37-1.53.98-3.06,1.95-4.6,2.91-.19.13-.39.25-.58.36-1.72,1.08-3.45,2.15-5.19,3.2-1.53.94-3.07,1.86-4.62,2.78l87.18,111.16c43.24-26.99,83.18-58.62,119.1-94.18.02,0,.04-.03.05-.05,2.75-2.79,5.48-5.61,8.19-8.45.67-.7,1.34-1.41,2.01-2.12,1.16-1.23,2.32-2.46,3.48-3.71,1.15-1.24,2.3-2.48,3.43-3.73,5.95-6.49,11.76-13.09,17.44-19.81.8-.94,1.59-1.89,2.39-2.84.13-.15.25-.3.37-.45.78-.94,1.57-1.88,2.34-2.82.31-.36.61-.73.89-1.09.99-1.19,1.97-2.39,2.93-3.59,10.44-12.88,20.41-26.16,29.86-39.81.76-1.09,1.52-2.19,2.27-3.29,1.17-1.7,2.33-3.41,3.46-5.12,1.03-1.52,2.05-3.04,3.05-4.57.88-1.33,1.74-2.66,2.6-3.99.6-.91,1.19-1.83,1.78-2.75,1.56-2.42,3.1-4.86,4.62-7.3.64-1.02,1.27-2.05,1.9-3.07.7-1.14,1.4-2.28,2.09-3.42.57-.94,1.15-1.89,1.72-2.84.13-.22.26-.44.39-.66,2.05-3.4,4.06-6.83,6.04-10.28.93-1.62,1.86-3.25,2.78-4.89,1.05-1.86,2.09-3.72,3.12-5.59,2.29-4.16,4.54-8.34,6.74-12.55.88-1.68,1.75-3.36,2.61-5.04.02-.04.05-.09.07-.13.85-1.66,1.7-3.33,2.54-5.01.12-.25.25-.49.37-.74l-113.76-91.35Z"/><path d="m184.22,274.63c-.27-.6-.53-1.21-.79-1.82l-113.75,91.35C25.09,274.98,0,174.36,0,67.88,0,44.96,1.17,22.31,3.44,0h142.59c-2.88,22.21-4.37,44.87-4.37,67.88,0,73.45,15.18,143.36,42.56,206.75Z"/><path d="m1326.85,67.88c0,106.48-25.09,207.1-69.67,296.28l-113.76-91.35c26.9-62.91,41.78-132.19,41.78-204.93,0-23.01-1.49-45.67-4.38-67.88h142.6c2.27,22.31,3.43,44.96,3.43,67.88Z"/></g></svg>