<?xml version="1.0" encoding="UTF-8"?><svg xmlns="http://www.w3.org/2000/svg" viewBox="0 0 1571.73 1571.73"><defs><style>.uuid-9f8d9e4b-a840-4ef2-9f8d-b45021487b8e{isolation:isolate;}.uuid-80379625-7a66-4970-87fc-1a9d198547d8{fill:none;mix-blend-mode:soft-light;stroke:#f1f1f2;stroke-miterlimit:10;stroke-width:1.25px;}</style></defs><g class="uuid-9f8d9e4b-a840-4ef2-9f8d-b45021487b8e"><g id="uuid-dd9d5b09-0dc2-4666-99df-2031b6855e4c"><g id="uuid-dd3ba78f-b0b8-4b95-b778-442c879ce0ee"><path class="uuid-80379625-7a66-4970-87fc-1a9d198547d8" d="m0,92.42h1571.11M0,184.84h1571.11M0,277.25h1571.11M0,369.67h1571.11M0,462.09h1571.11M0,554.51h1571.11M0,646.93h1571.11M0,739.35h1571.11M0,831.76h1571.11M0,924.18h1571.11M0,1016.6h1571.11M0,1109.02h1571.11M0,1201.44h1571.11M0,1293.85h1571.11M0,1386.27h1571.11M0,1478.69h1571.11M0,1571.11h1571.11m-92.42,0V0m92.42,1571.11V0m-184.84,1571.11V0m-92.42,1571.11V0m-92.42,1571.11V0m-92.42,1571.11V0m-92.42,1571.11V0m-92.42,1571.11V0m-92.42,1571.11V0m-92.42,1571.11V0m-92.42,1571.11V0m-92.42,1571.11V0m-92.42,1571.11V0m-92.42,1571.11V0m-92.42,1571.11V0m-92.42,1571.11V0m-92.42,1571.11V0"/></g></g></g></svg>