<?xml version="1.0" encoding="UTF-8"?><svg xmlns="http://www.w3.org/2000/svg" xmlns:xlink="http://www.w3.org/1999/xlink" viewBox="0 0 1571.73 1571.73"><defs><style>.uuid-5bddbefd-2c0e-4c67-867c-6303ece8ed31{isolation:isolate;}.uuid-38a50bc9-dc82-4405-8b6a-c3e1b64459b5{fill:none;mix-blend-mode:soft-light;stroke:url(#uuid-c9b915af-4581-45d7-89da-1980e46b4112);stroke-miterlimit:10;stroke-width:1.25px;}</style><linearGradient id="uuid-c9b915af-4581-45d7-89da-1980e46b4112" x1="785.87" y1="1571.73" x2="785.87" y2="0" gradientUnits="userSpaceOnUse"><stop offset="0" stop-color="#fff"/><stop offset=".09" stop-color="#fcfcfc"/><stop offset=".16" stop-color="#f2f2f2"/><stop offset=".22" stop-color="#e3e3e3"/><stop offset=".27" stop-color="#ccc"/><stop offset=".32" stop-color="#afafaf"/><stop offset=".37" stop-color="#8c8c8c"/><stop offset=".42" stop-color="#626262"/><stop offset=".46" stop-color="#333"/><stop offset=".5" stop-color="#000"/><stop offset=".54" stop-color="#2c2c2c"/><stop offset=".58" stop-color="#5d5d5d"/><stop offset=".63" stop-color="#888"/><stop offset=".68" stop-color="#adadad"/><stop offset=".73" stop-color="#cacaca"/><stop offset=".79" stop-color="#e1e1e1"/><stop offset=".85" stop-color="#f2f2f2"/><stop offset=".91" stop-color="#fbfbfb"/><stop offset="1" stop-color="#fff"/></linearGradient></defs><g class="uuid-5bddbefd-2c0e-4c67-867c-6303ece8ed31"><g id="uuid-0b221b3c-d6d8-4bdd-af69-c8a7bea931af"><g id="uuid-8db2fcab-16ce-47f0-9071-051e6942ba5c"><path class="uuid-38a50bc9-dc82-4405-8b6a-c3e1b64459b5" d="m0,92.42h1571.11M0,184.84h1571.11M0,277.25h1571.11M0,369.67h1571.11M0,462.09h1571.11M0,554.51h1571.11M0,646.93h1571.11M0,739.35h1571.11M0,831.76h1571.11M0,924.18h1571.11M0,1016.6h1571.11M0,1109.02h1571.11M0,1201.44h1571.11M0,1293.85h1571.11M0,1386.27h1571.11M0,1478.69h1571.11M0,1571.11h1571.11m-92.42,0V0m92.42,1571.11V0m-184.84,1571.11V0m-92.42,1571.11V0m-92.42,1571.11V0m-92.42,1571.11V0m-92.42,1571.11V0m-92.42,1571.11V0m-92.42,1571.11V0m-92.42,1571.11V0m-92.42,1571.11V0m-92.42,1571.11V0m-92.42,1571.11V0m-92.42,1571.11V0m-92.42,1571.11V0m-92.42,1571.11V0m-92.42,1571.11V0"/></g></g></g></svg>